<svg xmlns="http://www.w3.org/2000/svg" width="528.869" height="478.789" viewBox="0 0 528.869 478.789">
  <path id="Path_4" data-name="Path 4" d="M120.351,465.063,116.788,463l4.432-.647c-2.168-3.236-4.107-6.268-6.221-9.174-.481-.663-1.551-.922-2.381-1.3-1.293-.594-2.613-1.132-3.921-1.694l.344-.863,4.675,1.729c-2.4-3.708-4.177-7.112-6.613-9.948-1.342-1.563-3.792-2.174-5.75-3.2-1.383-.729-2.776-1.44-4.164-2.158l.353-.784,6.631,2.5.534-.452c-.789-1.3-1.6-2.59-2.361-3.909-5.1-8.877-15.053-21.722-20.752-34.782a143.933,143.933,0,0,1-4.868-14.35,114.946,114.946,0,0,1-3.433-15.012,82.327,82.327,0,0,1-.8-22.019c.1-1.039.105-2.086.159-3.248l-3.25-2.01.116-.338,2.947,1.042c1.549-3.481,1.549-3.481.736-5.218a25.5,25.5,0,0,0,1.691-2.954c1.08-2.685,1.988-5.44,3.087-8.117a31.527,31.527,0,0,1,10.636-13.173c.56-.423,1.146-.812,1.893-1.34a7.123,7.123,0,0,0-1.2-.815,6.706,6.706,0,0,0-1.261-.133c.281-.124.391-.221.481-.206,2.443.377,4.205-.983,5.791-2.47,5.359-5.026,11.568-8.957,17.309-13.487,1.549-1.223,3.361-2.124,4.571-3.759a3.4,3.4,0,0,0,.3-1.118c1.434.29,2.937.95,4.224-1.185a32.266,32.266,0,0,0-3.576.057c-.222.026-.358.794-.534,1.22l-2.944-1.2.181-.749c2.945.705,5.737-.989,8.712-.193a1.769,1.769,0,0,0,1.555-.468c.424-.626,2.208-.227,1.384-1.765a11.278,11.278,0,0,0,2.335-.2,17.306,17.306,0,0,0,2.536-1.216l-1.182-3.261c3.138,2.954,5.532,1.5,7.936.379a93.709,93.709,0,0,1,13.064-4.678c2.182-.65,4.3-1.5,7.171-2.52a141,141,0,0,0-17.7-4.6c-5.731-1.252-11.5-2.044-17.669-.972.676-1.914,2.184-2.407,3.411-3.084a32.247,32.247,0,0,1,12.419-3.435c10.106-1.075,20.087.1,30.041,1.7,5.412.866,10.783,2.135,16.228,2.613,3.634.319,6.948,2.1,10.715,1.719,3.883-.388,7.81-.331,11.72-.448,3.564-.107,7.133-.291,10.694-.212,1.118.025,1.329-.38,1.491-1.2l-.124.1c4.928,1.588,10.052,1.4,15.2,1.792-.7-1.244-1.725-2.048-2.344-3.093-1.592-2.682-2.916-5.523-4.514-8.2-1.782-2.986-2.682-3.185-5.5-1.207-3.125,2.192-6.135,4.549-9.193,6.834l.711,1.08.072-.091c-5.427.414-10.9,1.463-16.266,1.07a81.305,81.305,0,0,1-16.715-3.5,92.806,92.806,0,0,1-13.32-5.368,222.682,222.682,0,0,0-34.572-12.527c-7.986-2.263-15.935-4.681-23.217-8.82-.812-.462-1.609-.953-2.392-1.462-.161-.105-.227-.358-.565-.929.838,0,1.457-.039,2.069.006,8.752.635,17.5,1.339,26.253,1.912a104.963,104.963,0,0,1,38.688,10.478c6.634,3.169,13.455,5.968,20.283,8.7a37.1,37.1,0,0,0,14.47,2.316,22.613,22.613,0,0,0,5.484-.941c3.236-.879,6.426-1.939,9.881-3a19.794,19.794,0,0,0-1.026-1.868c-2.967-4.348-6.1-8.6-8.887-13.053-1.444-2.306-3.128-2.738-5.561-2.186-4.445,1.008-8.97,1.683-13.379,2.822-10.833,2.8-21.489,2.2-32.226-.708a167.3,167.3,0,0,1-42.084-18.035A141.527,141.527,0,0,1,92.7,196.588a5.055,5.055,0,0,1-1.489-2.5c1.286.435,2.609.784,3.852,1.315,13.653,5.829,27.266,11.75,40.944,17.52a372.228,372.228,0,0,0,39.484,14.482c4.67,1.374,9.434,1.6,14.213,1.944,6.4.458,12.792.926,19.315,1.4a8.965,8.965,0,0,0-.878-1.677c-4.346-5.513-8.754-10.976-13.066-16.516-.942-1.209-2.088-1.29-3.4-1.311a145.1,145.1,0,0,1-37.3-5.993,55.568,55.568,0,0,1-8.476-3.305c-9.515-4.487-19.057-8.93-28.426-13.708A69.445,69.445,0,0,1,99.1,174.875a35.941,35.941,0,0,1-7.623-11.268,21.771,21.771,0,0,1-1.33-11.025,13.844,13.844,0,0,1,.794-2.372c.334.865.522,1.254.636,1.664a25.524,25.524,0,0,0,9.335,13.253,82.014,82.014,0,0,0,16.308,9.565c6.142,2.871,12.415,5.465,18.523,8.4,5.787,2.786,11.392,5.948,17.155,8.785,5.137,2.527,10.377,4.844,15.577,7.243q10.668,4.916,21.344,9.815c.821.377,1.649.736,3.2,1.428-.816-1.264-1.2-1.905-1.626-2.509-6.033-8.489-12.11-16.945-18.078-25.479a11.586,11.586,0,0,0-4.309-3.981c-7.747-3.847-15.464-7.755-23.261-11.5-11.19-5.371-22.3-10.864-32.2-18.474a64.165,64.165,0,0,1-13.982-14.206,33.477,33.477,0,0,1-5.616-12.751c-.193-1-.258-2.034-.414-3.321.612.325,1,.407,1.178.645a59.788,59.788,0,0,0,17.135,14.876c7.3,4.414,14.753,8.594,22.193,12.778,9.592,5.393,19.113,10.884,27.656,17.9a5.34,5.34,0,0,0,1.2.462c-1.823-4.221-3.446-8.183-5.275-12.047a3.762,3.762,0,0,0-2.319-1.788c-19.906-4.2-47.406-27.839-56.486-52.938A35.689,35.689,0,0,1,96.389,86.7c4.468,4.076,7.88,8.283,11.642,12.135s7.518,7.708,11.3,11.543q5.792,5.877,11.619,11.72c3.791,3.822,7.569,7.658,11.377,11.464,3.876,3.874,7.782,7.718,12.184,11.332-.17-.811-.316-1.628-.515-2.433a18.367,18.367,0,0,1-.865-3.39c-.221-4.9-2.884-8.755-5.181-12.8-8.779-15.47-17.221-31.122-23.909-47.632-2.322-5.731-4.084-11.69-6.059-17.561a7.308,7.308,0,0,1-.3-3.133c16.222,15.679,27.9,34.331,37.006,54.868-.187-.808-.342-1.626-.568-2.423-2.265-8-4.3-16.042-4.536-24.426-.173-6.256.533-10.611,2.467-14.615l11.553,29.57.356-.171c-.727-6.379-1.716-12.741-2.105-19.139a40.922,40.922,0,0,1,3.791-19.849c.535,3.74.881,6.668,1.381,9.569,1.643,9.512,5.194,18.428,8.583,27.4q5.267,13.941,10.265,27.982c3.073,8.632,3.725,17.565,2.929,26.652-.663,7.576-1.312,15.154-1.806,22.742-.218,3.356-.037,6.739-.037,10.466a8.968,8.968,0,0,1-3.408-5.13,145.143,145.143,0,0,1-3.49-14.64c-1.206-7.5-1.959-15.076-2.859-22.624a44.241,44.241,0,0,0-2.98-11.3c0,5.125.3,10.328-.083,15.481A29.673,29.673,0,0,1,169.1,163.4c-1.307-6.495-2.291-12.74-3.867-18.832a154.941,154.941,0,0,0-6.025-17.793c1.337,7.013,2.68,13.974,2.481,21.675l-2.5-2.363a3.841,3.841,0,0,0-.054,1.015,8.306,8.306,0,0,0,.572,1.656c5.523,11.2,10.037,22.924,17.367,33.2,3.6,5.046,6.761,10.4,10.378,15.435,3.955,5.5,8.151,10.835,12.344,16.16,3.9,4.959,7.939,9.813,11.926,14.706.274.337.629.607,1.288,1.233-.549-3.434-1.157-6.381-1.466-9.358-1.042-10.012.405-19.846,2.474-29.6,1.724-8.119,4.048-16.133,5.34-24.314,1.767-11.193,2.989-22.483,4.113-33.765,1.321-13.265,1.807-26.616,4.2-39.768a2.523,2.523,0,0,1,.925-1.667c.266,1.064.578,2.117.794,3.191A244.924,244.924,0,0,1,234.7,142.26a141.984,141.984,0,0,1-7.466,44.435c-3.258,9.993-6.117,20.125-8.883,30.268A46.206,46.206,0,0,0,217,233.673a6.48,6.48,0,0,0,.8,2.966c3.449,4.994,7.017,9.9,10.9,15.342a7.383,7.383,0,0,0,.319-1.592c-1.949-18.216-.039-36.154,3.368-54.067,2.357-12.4,4.107-24.92,5.833-37.428,2.24-16.225,4.327-32.464,9.2-48.178.4-1.276.871-2.528,1.309-3.791l.717.145,1.052,30.58c2.8-10.409,6.057-20.551,14.681-28.418.034.711.149,1.037.044,1.254-4.862,9.973-6.1,20.683-5.414,31.493,1.151,18.1-.413,35.984-3.023,53.845a493.4,493.4,0,0,1-15.309,68.759c-.383,1.3-.516,2.673-.833,4.362,7.384,1.684,14.7,2.139,22.027,4.694,1-4.941,2.173-9.72,2.913-14.563,2.227-14.563,4.408-29.134,6.376-43.733,2.217-16.46,4.174-32.956,8.4-49.066a128.314,128.314,0,0,1,9.133-25.365,7.657,7.657,0,0,1,2.107-2.739c-.515,4.385-1.125,8.76-1.526,13.155-.935,10.251-1.87,20.5-2.623,30.77-1.258,17.149-2.283,34.315-4.818,51.35a233.707,233.707,0,0,1-9.524,38.42c-.32.979-.635,1.958-.944,2.91,2.963,1.468,2.963,1.468,4.964-.318l.938,1.751a16.828,16.828,0,0,0,.636-1.728c1.9-8.2,3.845-16.39,5.652-24.611,3.263-14.844,6.578-29.677,9.605-44.569a209.514,209.514,0,0,0,3.826-33.433,12.337,12.337,0,0,1,.509-3.4c5.253,12.89,5.921,26.415,5.576,40.786L311.9,192.9l.442.219c-3.254,31.07-6.507,62.139-9.787,93.461l9.769,4.458c.49-1.342,1.014-2.5,1.34-3.709a240.612,240.612,0,0,0,6.142-31.649c.992-7.636,2.511-15.222,4.179-22.746a37.092,37.092,0,0,1,6.476-13.993c-.076,1.463-.057,2.182-.159,2.885-1.391,9.679-.784,19.391-.407,29.09.347,8.9.467,17.8-1.052,26.6-1.033,5.986-2.471,11.9-3.728,17.849-.142.676-.276,1.353-.475,2.329,1.479.863,2.939,1.715,4.6,2.679,4.019-18.831,7.153-37.578,17.9-53.852-1.807,20.614-2.44,41.31-6.163,61.784l4.49,3.4c7.657-20.885,13.581-42.08,24.023-61.661,0,1.778.127,3.566-.021,5.332a261.616,261.616,0,0,1-6.245,40.881,8.5,8.5,0,0,0,.653,6.024q9.367,20.213,18.585,40.5c1.5,3.283,2.843,6.637,4.443,10.393l6.4-5.621a5.738,5.738,0,0,0-.515-1.188c-6.438-7.765-9.064-17.037-10.533-26.749-1.74-11.484-1.931-23.069-2.186-34.653-.184-8.414-.581-16.819-2.622-25.735a19.97,19.97,0,0,1,1.937,1.817c5.232,6.755,7.641,14.655,9.183,22.889,2.316,12.368,2.337,24.911,2.714,37.417.227,7.5.562,14.959,2.255,22.3.152.664.345,1.32.616,2.342l15.708-14.441c-.9-2.34-1.747-4.618-2.637-6.881-5.174-13.174-10.3-26.364-13.357-40.238-2.329-10.6-3.337-21.259-1.112-32.019.705-3.415,1.667-6.747,4.056-9.72.155,2.239.3,4.479.464,6.717.893,12.32,4.125,24.18,7.1,36.09,2.5,9.983,5.115,19.95,6.224,30.211.487,4.511.582,9.066.873,13.9a12,12,0,0,0,5.667-4.776c1.279-2.369,4.356-2.043,5.2-4.722-5.256-4.994-6.929-11.742-7.5-18.658-1.053-12.819-3.658-25.5-3.545-38.413.111-12.652.663-25.265,3.955-37.584.271-1.012.65-2,1.017-2.979.07-.187.323-.306.78-.715.591,5.1,1.282,9.968,1.7,14.86,1.372,16.086,2.83,32.168,3.858,48.278.361,5.683-.531,11.437-.638,17.164-.081,4.307.094,8.627.334,12.931.075,1.34.732,2.648,1.3,4.564,6.445-5.111,12.5-9.905,18.8-14.9-5.539-5.481-7.67-12.22-8.782-19.35a93.422,93.422,0,0,1-.439-23.461c.95-9.777,2.173-19.528,3.348-29.283.673-5.589,1.042-11.161-.3-16.966a3.816,3.816,0,0,1,2.8,2.495,56.6,56.6,0,0,1,3.57,9.455c2.075,8.985,1.74,18.134,1.078,27.252-.777,10.734-1.838,21.45-2.44,32.19-.233,4.166.383,8.388.764,12.571a26.928,26.928,0,0,0,1.289,4.5l12.991-10.523c.007-2.164-1.232-3.31-2.451-4.347-5.6-4.765-7.515-11.057-7.809-18.106a42.246,42.246,0,0,1,1.846-14.9c4.705-14.5,7.8-29.353,10.344-44.355a28.944,28.944,0,0,1,4.52-11.784c.076.72.189,1.438.221,2.16.3,7.014.557,14.029.888,21.04.481,10.2-1.451,19.991-4.676,29.626a158.355,158.355,0,0,0-4.764,16.848c-1.248,5.8-1.122,11.625,2.162,16.987a33.636,33.636,0,0,1,1.988,4.89c3.889-3.441,7.69-6.7,11.326-10.134a3.389,3.389,0,0,0,.439-2.819c-.84-3.037-1.87-6.027-2.92-9-2.508-7.112-4.36-14.29-3.535-21.966a126.592,126.592,0,0,1,10.619-38.735,110.438,110.438,0,0,1,13.435-22.15,5.733,5.733,0,0,1,2.514-2.006q-1.962,6.692-3.926,13.38c-4.83,16.371-9.823,32.689-13.317,49.428-1.362,6.524-1.209,13-.862,19.553.2,3.718.035,7.453.035,11.724a16.73,16.73,0,0,0,2.211-1.507c3.555-3.56,7.035-7.2,10.628-10.717a3.8,3.8,0,0,0,.939-3.526,101.2,101.2,0,0,1,.743-24.853,77.9,77.9,0,0,1,2.752-11.917c2.217-7.142,4.48-14.29,7.229-21.237a97.366,97.366,0,0,1,6.915-13.363,26.059,26.059,0,0,1,8.81-8.912,15.146,15.146,0,0,1,10.666-2.443c-.113.272-.142.575-.275.631a20.576,20.576,0,0,0-11.047,11.247c-2.312,5.354-4.28,10.864-6.23,16.365q-5.388,15.2-10.558,30.468c-2.533,7.534-4.849,15.139-7.247,22.718-.167.527-.217,1.09-.468,2.413,1.64-1.488,2.73-2.479,3.823-3.468,5.209-4.71,10.456-9.377,15.6-14.162a10.328,10.328,0,0,0,2.543-3.665q2.921-7.515,5.5-15.16c3.076-9.086,6.065-18.2,10.577-26.714a56.117,56.117,0,0,1,9.481-13.432c3.819-3.858,8.115-6.937,14.185-8.044-1.788,2.079-3.473,3.576-4.583,5.421a158.865,158.865,0,0,0-7.812,14.077c-2.836,6.025-5.061,12.334-7.78,18.418-2.809,6.286-5.892,12.45-8.947,18.858a9.666,9.666,0,0,0,1.661-.576c1.94-1.083,3.828-2.261,5.776-3.327a3.045,3.045,0,0,0,1.745-2.4c2.443-15.225,10.583-27.295,21.253-37.9a54.074,54.074,0,0,1,15.419-10.871,32.922,32.922,0,0,1,6.913-2.184c-13.257,16.266-26.091,32.7-38.726,49.371,4.091-1.453,8.211-2.271,11.793-4.978,12.979-9.807,26.281-19.174,40.827-26.585a79.4,79.4,0,0,1,10.349-4.356,55.609,55.609,0,0,1-10.514,12.34c-4.038,3.724-8.2,7.346-12.561,10.676s-9.029,6.23-14.012,9.625c5.311-1.7,10.081-3.435,14.965-4.736a29.788,29.788,0,0,1,15.405-.269c-7.174,3.835-14.018,7.5-20.864,11.156l.212.673c9.247-2.828,18.522-5.283,28.629-2.307a12.164,12.164,0,0,1-2.018.878,71.758,71.758,0,0,0-18.646,7.025c-8,4.12-15.983,8.289-23.975,12.435a56.626,56.626,0,0,1-25.679,6.16c-5.614.083-11.227.364-16.838.629-1.854.088-3.7.407-5.831.653.808-2.04,2.508-2.831,4.122-3.4,4.948-1.757,9.932-3.438,14.975-4.9,4.035-1.171,8.183-1.952,12.271-2.951a20.95,20.95,0,0,0,7.27-3.13c-7.774,1.331-15.48,2.449-23.635-1.536a83.7,83.7,0,0,0,25.706-9.835l-13.859,3.275.211-1.838a2.057,2.057,0,0,0-.673-.02,3.857,3.857,0,0,0-.942.454c-8.292,5.455-17.117,10.139-24.4,17.048-1.781,1.688-3.671,3.272-5.589,4.8a130.9,130.9,0,0,0-18.411,17.77c-2.323,2.757-4.981,5.232-7.8,8.164,2.992-.762,5.6-1.573,8.256-2.075a67.948,67.948,0,0,1,22.036-.38c19,2.66,38.021,2.461,57.1,1.386,5.482-.309,11-.132,16.494-.124a22.487,22.487,0,0,1,2.992.391l.076.7c-4.215,1.261-8.417,2.572-12.649,3.776a153.18,153.18,0,0,1-34.843,5.968c-9.673.454-19.107-1.116-28.546-2.931-6.884-1.323-13.8-2.615-20.757-3.371-4.247-.462-8.612.051-12.917.278a5.055,5.055,0,0,0-2.839,1.165,109.375,109.375,0,0,0-9.949,9.667c1.931-.372,3.855-.781,5.793-1.108,13.249-2.234,26.528-1.968,39.889-1.046,11.2.773,22.449.8,33.68.993,11.01.186,21.965.783,32.8,3.317-7.4,2.041-15.038,2.675-22.62,4.149,7.995,1.172,15.862,2.68,22.221,8.391-11.549-3.3-22.907-1.784-34.64.83.481.809.787,1.38,1.146,1.914Q542.5,321.1,547.772,328.9a22.583,22.583,0,0,0,1.814,2.088l.022-.035c2.474,3.734,4.843,7.542,7.443,11.187,7.33,10.277,11.158,22.048,14.683,33.956a216.527,216.527,0,0,1,8.321,49.347c.774,13.593-2.369,26.494-7.6,38.912-7.335,17.405-18.253,31.974-34.381,42.247-7.19,4.58-14.388,9.146-21.682,13.557-4.286,2.591-8.682,5.03-13.176,7.24a61.7,61.7,0,0,1-19.471,5.536c-8.112,1.05-16.176,2.5-24.309,3.327-9.523.967-18.806-.661-27.826-3.8q-1.822-.634-3.648-1.255c-9.4-3.182-18.76-6.5-28.215-9.515-13.341-4.258-25.478-10.489-35.471-20.51-2.272-2.278-3.282-2.242-5.566-.056a103.55,103.55,0,0,1-21.929,15.634,151.6,151.6,0,0,1-29.017,11.841c-19.176,5.873-42.574,8.561-61,7.911-3.241-.114-6.495.234-9.742.215-.694,0-1.348-.813-2.084-1.007a22.383,22.383,0,0,0-2.786-.294,146.239,146.239,0,0,1-31.279-7.6,120.049,120.049,0,0,1-12.821-5.649c-4.087-2.048-8.091-4.107-12.864-3.891l4.585-.234c-3.425-2.206-6.166-4.11-9.039-5.784-2.838-1.652-5.812-3.073-8.612-4.536l1.232-.572c-3.592-2.994-6.991-6.052-10.634-8.783a67.142,67.142,0,0,1-7.465-6.987c-2.537-2.584-5.058-5.187-7.475-7.882-2.341-2.612-4.6-5.3-6.785-8.049-1.895-2.383-3.671-4.843-6.526-6.223-.338-.162-.487-.715-.726-1.087h1.6a38.278,38.278,0,0,0-2.464-3.44,3.4,3.4,0,0,0-1.966-1.166C119.54,463.443,119.779,464.269,120.351,465.063Zm117.769-197.5.752-.2c-.5-18.241.993-36.371,2.661-54.535a5.736,5.736,0,0,0-1.014,2.2q-4.5,19.787-8.946,39.588a3.555,3.555,0,0,0,.159,2.326C233.789,260.517,235.976,264.025,238.12,267.559ZM465.5,299c-2.792-.243-5.582-.522-8.379-.707a3.962,3.962,0,0,0-2.353.32c-2.432,1.71-4.745,3.592-7.563,5.768C454.576,305.3,459.93,301.815,465.5,299Zm-99.856,32,.17-.3c-2.348-5.561-4.7-11.123-7.273-17.231-.958,2.871-1.719,5.155-2.392,7.174Zm84.9-24.1c-2.287-.356-4.025-1.2-5.084-.677a27.015,27.015,0,0,0-6.843,5.4l.537.815Zm-72.871,41.316-.318.078c1.223,2.167,2.316,4.423,3.713,6.471,1.055,1.545,1.731,1.343,3.049-.345Zm-86.721-72.456c-2.438,4.534-2.473,4.964-.277,6C290.765,279.808,290.847,278.035,290.952,275.755Z" transform="translate(-69.403 -57.943)" fill="#fff" opacity="0.15"/>
</svg>
